<mxfile host="app.diagrams.net" agent="Mozilla/5.0 (Windows NT 10.0; Win64; x64) AppleWebKit/537.36 (KHTML, like Gecko) Chrome/136.0.0.0 Safari/537.36" version="27.0.6">
  <diagram name="over_flowchart" id="74e2e168-ea6b-b213-b513-2b3c1d86103e">
    <mxGraphModel dx="1426" dy="743" grid="1" gridSize="10" guides="1" tooltips="1" connect="1" arrows="1" fold="1" page="1" pageScale="1" pageWidth="1100" pageHeight="850" background="none" math="0" shadow="0">
      <root>
        <mxCell id="0" />
        <mxCell id="1" parent="0" />
        <mxCell id="77e6c97f196da883-1" value="&lt;font style=&quot;font-size: 14px;&quot;&gt;工作流一键重跑整体流程图&lt;/font&gt;" style="swimlane;html=1;childLayout=stackLayout;startSize=20;rounded=0;shadow=0;labelBackgroundColor=none;strokeWidth=1;fontFamily=Verdana;fontSize=8;align=center;" parent="1" vertex="1">
          <mxGeometry x="70" y="40" width="800" height="750" as="geometry" />
        </mxCell>
        <mxCell id="77e6c97f196da883-2" value="数仓负责人" style="swimlane;html=1;startSize=20;" parent="77e6c97f196da883-1" vertex="1">
          <mxGeometry y="20" width="160" height="730" as="geometry">
            <mxRectangle y="20" width="40" height="730" as="alternateBounds" />
          </mxGeometry>
        </mxCell>
        <mxCell id="UwnphVFc7vWF_-rA4-Z4-4" value="" style="line;strokeWidth=2;html=1;" vertex="1" parent="77e6c97f196da883-2">
          <mxGeometry y="180" width="800" height="10" as="geometry" />
        </mxCell>
        <mxCell id="UwnphVFc7vWF_-rA4-Z4-9" value="终端工作流信息补充" style="shape=process;whiteSpace=wrap;html=1;backgroundOutline=1;" vertex="1" parent="77e6c97f196da883-2">
          <mxGeometry x="36.25" y="110" width="87.5" height="50" as="geometry" />
        </mxCell>
        <mxCell id="77e6c97f196da883-3" value="平台" style="swimlane;html=1;startSize=20;" parent="77e6c97f196da883-1" vertex="1">
          <mxGeometry x="160" y="20" width="160" height="730" as="geometry" />
        </mxCell>
        <mxCell id="UwnphVFc7vWF_-rA4-Z4-5" value="&lt;font style=&quot;font-size: 12px;&quot;&gt;终端工作流纳入SLA&lt;/font&gt;" style="rounded=1;whiteSpace=wrap;html=1;" vertex="1" parent="77e6c97f196da883-3">
          <mxGeometry x="-115" y="45" width="70" height="30" as="geometry" />
        </mxCell>
        <mxCell id="UwnphVFc7vWF_-rA4-Z4-10" value="一键重跑相关信息维护" style="rounded=1;whiteSpace=wrap;html=1;fillColor=#f8cecc;strokeColor=#b85450;" vertex="1" parent="77e6c97f196da883-3">
          <mxGeometry x="45" y="45" width="70" height="30" as="geometry" />
        </mxCell>
        <mxCell id="UwnphVFc7vWF_-rA4-Z4-11" style="edgeStyle=orthogonalEdgeStyle;rounded=0;orthogonalLoop=1;jettySize=auto;html=1;exitX=1;exitY=0.5;exitDx=0;exitDy=0;entryX=0;entryY=0.5;entryDx=0;entryDy=0;" edge="1" parent="77e6c97f196da883-3" source="UwnphVFc7vWF_-rA4-Z4-5" target="UwnphVFc7vWF_-rA4-Z4-10">
          <mxGeometry relative="1" as="geometry" />
        </mxCell>
        <mxCell id="UwnphVFc7vWF_-rA4-Z4-15" value="SLA链路一键重跑信息缺失的工作流清单筛查" style="rounded=1;whiteSpace=wrap;html=1;" vertex="1" parent="77e6c97f196da883-3">
          <mxGeometry x="35" y="110" width="90" height="50" as="geometry" />
        </mxCell>
        <mxCell id="77e6c97f196da883-4" value="链路工作流负责人" style="swimlane;html=1;startSize=20;" parent="77e6c97f196da883-1" vertex="1">
          <mxGeometry x="320" y="20" width="160" height="730" as="geometry" />
        </mxCell>
        <mxCell id="UwnphVFc7vWF_-rA4-Z4-13" value="接收一键重跑相关信息维护通知" style="rounded=1;whiteSpace=wrap;html=1;" vertex="1" parent="77e6c97f196da883-4">
          <mxGeometry x="40" y="45" width="90" height="30" as="geometry" />
        </mxCell>
        <mxCell id="UwnphVFc7vWF_-rA4-Z4-17" value="链路工作流信息补充" style="shape=process;whiteSpace=wrap;html=1;backgroundOutline=1;" vertex="1" parent="77e6c97f196da883-4">
          <mxGeometry x="41.25" y="110" width="87.5" height="50" as="geometry" />
        </mxCell>
        <mxCell id="77e6c97f196da883-5" value="运维" style="swimlane;html=1;startSize=20;" parent="77e6c97f196da883-1" vertex="1">
          <mxGeometry x="480" y="20" width="160" height="730" as="geometry" />
        </mxCell>
        <mxCell id="77e6c97f196da883-6" value="受影响业务方" style="swimlane;html=1;startSize=20;" parent="77e6c97f196da883-1" vertex="1">
          <mxGeometry x="640" y="20" width="160" height="730" as="geometry" />
        </mxCell>
        <mxCell id="UwnphVFc7vWF_-rA4-Z4-14" style="edgeStyle=orthogonalEdgeStyle;rounded=0;orthogonalLoop=1;jettySize=auto;html=1;exitX=0;exitY=0.5;exitDx=0;exitDy=0;entryX=1;entryY=0.5;entryDx=0;entryDy=0;" edge="1" parent="77e6c97f196da883-1" source="UwnphVFc7vWF_-rA4-Z4-13" target="UwnphVFc7vWF_-rA4-Z4-10">
          <mxGeometry relative="1" as="geometry" />
        </mxCell>
        <mxCell id="UwnphVFc7vWF_-rA4-Z4-16" style="edgeStyle=orthogonalEdgeStyle;rounded=0;orthogonalLoop=1;jettySize=auto;html=1;exitX=0;exitY=0.5;exitDx=0;exitDy=0;entryX=1;entryY=0.5;entryDx=0;entryDy=0;" edge="1" parent="77e6c97f196da883-1" source="UwnphVFc7vWF_-rA4-Z4-15" target="UwnphVFc7vWF_-rA4-Z4-9">
          <mxGeometry relative="1" as="geometry" />
        </mxCell>
        <mxCell id="UwnphVFc7vWF_-rA4-Z4-18" style="edgeStyle=orthogonalEdgeStyle;rounded=0;orthogonalLoop=1;jettySize=auto;html=1;exitX=1;exitY=0.5;exitDx=0;exitDy=0;" edge="1" parent="77e6c97f196da883-1" source="UwnphVFc7vWF_-rA4-Z4-15" target="UwnphVFc7vWF_-rA4-Z4-17">
          <mxGeometry relative="1" as="geometry" />
        </mxCell>
        <mxCell id="UwnphVFc7vWF_-rA4-Z4-6" value="生产应用管理运营" style="text;html=1;align=center;verticalAlign=middle;whiteSpace=wrap;rounded=0;" vertex="1" parent="1">
          <mxGeometry x="50" y="100" width="20" height="120" as="geometry" />
        </mxCell>
        <mxCell id="UwnphVFc7vWF_-rA4-Z4-12" value="&lt;div&gt;&lt;b&gt;&lt;font style=&quot;color: rgb(255, 0, 0);&quot;&gt;一键重跑需维护信息：&lt;/font&gt;&lt;/b&gt;&lt;/div&gt;1.是否可重复sink&lt;div&gt;2.是否需阻断（默认需要）&lt;/div&gt;&lt;div&gt;3.是否可跨0点运行&lt;/div&gt;&lt;div&gt;4.工作流是否可并行执行&lt;/div&gt;" style="shape=note;whiteSpace=wrap;html=1;backgroundOutline=1;fontColor=#000000;darkOpacity=0.05;fillColor=#FFF9B2;strokeColor=none;fillStyle=solid;direction=west;gradientDirection=north;gradientColor=#FFF2A1;shadow=1;size=20;pointerEvents=1;align=left;" vertex="1" parent="1">
          <mxGeometry x="890" y="80" width="150" height="80" as="geometry" />
        </mxCell>
      </root>
    </mxGraphModel>
  </diagram>
</mxfile>
